<svg width="1280" height="720" viewBox="0 0 1280 720" fill="none" xmlns="http://www.w3.org/2000/svg">
<rect width="1280" height="720" fill="url(#paint0_linear_23_86)"/>
<rect x="20" y="20" width="1240" height="680" rx="30" fill="white"/>
<rect x="30" y="30" width="1220" height="660" rx="30" fill="#F4E5FE" fill-opacity="0.8"/>
<path d="M30 60C30 43.4315 43.4315 30 60 30H109C117.284 30 124 36.7157 124 45V675C124 683.284 117.284 690 109 690H60C43.4315 690 30 676.569 30 660V60Z" fill="url(#paint1_linear_23_86)"/>
<rect x="144" y="87" width="257" height="154" rx="10" fill="white"/>
<rect x="421" y="87" width="256" height="154" rx="10" fill="white"/>
<rect x="697" y="87" width="256" height="154" rx="10" fill="white"/>
<rect x="973" y="87" width="257" height="154" rx="10" fill="white"/>
<rect x="144" y="261" width="533" height="409" rx="10" fill="white"/>
<rect x="697" y="261" width="533" height="409" rx="10" fill="white"/>
<path d="M1124.4 682.632L1123.03 687H1122.47L1121.26 683.336L1120.06 687H1119.49L1118.12 682.632H1118.69L1119.78 686.432L1121 682.632H1121.56L1122.77 686.44L1123.85 682.632H1124.4ZM1130.92 682.632L1129.56 687H1129L1127.79 683.336L1126.58 687H1126.01L1124.64 682.632H1125.21L1126.3 686.432L1127.52 682.632H1128.08L1129.29 686.44L1130.37 682.632H1130.92ZM1137.45 682.632L1136.08 687H1135.52L1134.31 683.336L1133.1 687H1132.53L1131.17 682.632H1131.73L1132.82 686.432L1134.05 682.632H1134.61L1135.81 686.44L1136.89 682.632H1137.45ZM1138.31 687.04C1138.19 687.04 1138.09 687 1138.01 686.92C1137.94 686.84 1137.9 686.741 1137.9 686.624C1137.9 686.507 1137.94 686.411 1138.01 686.336C1138.09 686.256 1138.19 686.216 1138.31 686.216C1138.42 686.216 1138.51 686.256 1138.59 686.336C1138.67 686.411 1138.71 686.507 1138.71 686.624C1138.71 686.741 1138.67 686.84 1138.59 686.92C1138.51 687 1138.42 687.04 1138.31 687.04ZM1143.62 684.592C1143.62 684.784 1143.61 684.931 1143.6 685.032H1139.98C1139.99 685.363 1140.07 685.645 1140.22 685.88C1140.36 686.115 1140.55 686.293 1140.78 686.416C1141.02 686.533 1141.27 686.592 1141.55 686.592C1141.91 686.592 1142.22 686.504 1142.46 686.328C1142.71 686.152 1142.88 685.915 1142.96 685.616H1143.55C1143.44 686.043 1143.22 686.392 1142.86 686.664C1142.52 686.931 1142.08 687.064 1141.55 687.064C1141.14 687.064 1140.77 686.973 1140.45 686.792C1140.12 686.605 1139.87 686.344 1139.68 686.008C1139.5 685.667 1139.41 685.269 1139.41 684.816C1139.41 684.363 1139.5 683.965 1139.68 683.624C1139.86 683.283 1140.11 683.021 1140.44 682.84C1140.76 682.659 1141.14 682.568 1141.55 682.568C1141.97 682.568 1142.33 682.659 1142.64 682.84C1142.95 683.021 1143.19 683.267 1143.36 683.576C1143.53 683.88 1143.62 684.219 1143.62 684.592ZM1143.05 684.576C1143.05 684.251 1142.99 683.973 1142.85 683.744C1142.71 683.515 1142.53 683.341 1142.3 683.224C1142.06 683.107 1141.8 683.048 1141.53 683.048C1141.11 683.048 1140.76 683.181 1140.46 683.448C1140.17 683.715 1140.01 684.091 1139.98 684.576H1143.05ZM1144.38 684.808C1144.38 684.36 1144.47 683.968 1144.66 683.632C1144.84 683.291 1145.09 683.029 1145.4 682.848C1145.72 682.661 1146.08 682.568 1146.48 682.568C1146.86 682.568 1147.21 682.661 1147.52 682.848C1147.83 683.035 1148.06 683.277 1148.2 683.576V681.08H1148.76V687H1148.2V686.024C1148.07 686.328 1147.85 686.579 1147.54 686.776C1147.24 686.968 1146.88 687.064 1146.47 687.064C1146.07 687.064 1145.71 686.971 1145.39 686.784C1145.08 686.597 1144.83 686.333 1144.65 685.992C1144.47 685.651 1144.38 685.256 1144.38 684.808ZM1148.2 684.816C1148.2 684.464 1148.13 684.155 1147.98 683.888C1147.84 683.621 1147.64 683.416 1147.39 683.272C1147.15 683.128 1146.87 683.056 1146.58 683.056C1146.27 683.056 1145.99 683.125 1145.74 683.264C1145.5 683.403 1145.3 683.605 1145.16 683.872C1145.02 684.133 1144.95 684.445 1144.95 684.808C1144.95 685.165 1145.02 685.48 1145.16 685.752C1145.3 686.019 1145.5 686.224 1145.74 686.368C1145.99 686.507 1146.27 686.576 1146.58 686.576C1146.87 686.576 1147.15 686.504 1147.39 686.36C1147.64 686.216 1147.84 686.011 1147.98 685.744C1148.13 685.477 1148.2 685.168 1148.2 684.816ZM1150.32 681.808C1150.21 681.808 1150.11 681.768 1150.03 681.688C1149.95 681.608 1149.91 681.509 1149.91 681.392C1149.91 681.275 1149.95 681.179 1150.03 681.104C1150.11 681.024 1150.21 680.984 1150.32 680.984C1150.43 680.984 1150.53 681.024 1150.61 681.104C1150.69 681.179 1150.73 681.275 1150.73 681.392C1150.73 681.509 1150.69 681.608 1150.61 681.688C1150.53 681.768 1150.43 681.808 1150.32 681.808ZM1150.6 682.632V687H1150.04V682.632H1150.6ZM1153.91 682.552C1154.44 682.552 1154.86 682.715 1155.19 683.04C1155.53 683.36 1155.69 683.827 1155.69 684.44V687H1155.14V684.504C1155.14 684.029 1155.02 683.667 1154.78 683.416C1154.54 683.165 1154.22 683.04 1153.81 683.04C1153.39 683.04 1153.05 683.173 1152.8 683.44C1152.55 683.707 1152.43 684.099 1152.43 684.616V687H1151.87V682.632H1152.43V683.376C1152.57 683.109 1152.77 682.907 1153.03 682.768C1153.29 682.624 1153.58 682.552 1153.91 682.552ZM1156.67 684.808C1156.67 684.36 1156.76 683.968 1156.94 683.632C1157.12 683.291 1157.37 683.029 1157.68 682.848C1158 682.661 1158.36 682.568 1158.76 682.568C1159.18 682.568 1159.53 682.664 1159.83 682.856C1160.14 683.048 1160.36 683.293 1160.49 683.592V682.632H1161.05V687H1160.49V686.032C1160.35 686.331 1160.13 686.579 1159.83 686.776C1159.53 686.968 1159.17 687.064 1158.75 687.064C1158.36 687.064 1158 686.971 1157.68 686.784C1157.37 686.597 1157.12 686.333 1156.94 685.992C1156.76 685.651 1156.67 685.256 1156.67 684.808ZM1160.49 684.816C1160.49 684.464 1160.42 684.155 1160.27 683.888C1160.13 683.621 1159.93 683.416 1159.68 683.272C1159.44 683.128 1159.16 683.056 1158.87 683.056C1158.56 683.056 1158.28 683.125 1158.03 683.264C1157.79 683.403 1157.59 683.605 1157.45 683.872C1157.31 684.133 1157.24 684.445 1157.24 684.808C1157.24 685.165 1157.31 685.48 1157.45 685.752C1157.59 686.019 1157.79 686.224 1158.03 686.368C1158.28 686.507 1158.56 686.576 1158.87 686.576C1159.16 686.576 1159.44 686.504 1159.68 686.36C1159.93 686.216 1160.13 686.011 1160.27 685.744C1160.42 685.477 1160.49 685.168 1160.49 684.816ZM1164.38 682.552C1164.9 682.552 1165.32 682.715 1165.66 683.04C1165.99 683.36 1166.15 683.827 1166.15 684.44V687H1165.6V684.504C1165.6 684.029 1165.48 683.667 1165.24 683.416C1165 683.165 1164.68 683.04 1164.27 683.04C1163.85 683.04 1163.51 683.173 1163.26 683.44C1163.01 683.707 1162.89 684.099 1162.89 684.616V687H1162.33V682.632H1162.89V683.376C1163.03 683.109 1163.23 682.907 1163.49 682.768C1163.75 682.624 1164.04 682.552 1164.38 682.552ZM1172.59 682.552C1173.1 682.552 1173.52 682.715 1173.84 683.04C1174.16 683.36 1174.33 683.827 1174.33 684.44V687H1173.77V684.504C1173.77 684.029 1173.66 683.667 1173.43 683.416C1173.2 683.165 1172.89 683.04 1172.49 683.04C1172.08 683.04 1171.76 683.176 1171.51 683.448C1171.26 683.72 1171.14 684.115 1171.14 684.632V687H1170.59V684.504C1170.59 684.029 1170.48 683.667 1170.25 683.416C1170.02 683.165 1169.7 683.04 1169.3 683.04C1168.89 683.04 1168.56 683.176 1168.32 683.448C1168.07 683.72 1167.95 684.115 1167.95 684.632V687H1167.39V682.632H1167.95V683.384C1168.09 683.112 1168.29 682.907 1168.54 682.768C1168.8 682.624 1169.08 682.552 1169.4 682.552C1169.78 682.552 1170.11 682.643 1170.39 682.824C1170.68 683.005 1170.89 683.272 1171.01 683.624C1171.13 683.277 1171.33 683.013 1171.61 682.832C1171.9 682.645 1172.23 682.552 1172.59 682.552ZM1175.31 684.808C1175.31 684.36 1175.4 683.968 1175.58 683.632C1175.76 683.291 1176.01 683.029 1176.32 682.848C1176.64 682.661 1177 682.568 1177.4 682.568C1177.82 682.568 1178.18 682.664 1178.47 682.856C1178.78 683.048 1179 683.293 1179.13 683.592V682.632H1179.69V687H1179.13V686.032C1178.99 686.331 1178.77 686.579 1178.47 686.776C1178.17 686.968 1177.81 687.064 1177.39 687.064C1177 687.064 1176.64 686.971 1176.32 686.784C1176.01 686.597 1175.76 686.333 1175.58 685.992C1175.4 685.651 1175.31 685.256 1175.31 684.808ZM1179.13 684.816C1179.13 684.464 1179.06 684.155 1178.91 683.888C1178.77 683.621 1178.57 683.416 1178.32 683.272C1178.08 683.128 1177.8 683.056 1177.51 683.056C1177.2 683.056 1176.92 683.125 1176.67 683.264C1176.43 683.403 1176.23 683.605 1176.09 683.872C1175.95 684.133 1175.88 684.445 1175.88 684.808C1175.88 685.165 1175.95 685.48 1176.09 685.752C1176.23 686.019 1176.43 686.224 1176.67 686.368C1176.92 686.507 1177.2 686.576 1177.51 686.576C1177.8 686.576 1178.08 686.504 1178.32 686.36C1178.57 686.216 1178.77 686.011 1178.91 685.744C1179.06 685.477 1179.13 685.168 1179.13 684.816ZM1181.53 683.408C1181.65 683.136 1181.84 682.925 1182.09 682.776C1182.34 682.627 1182.66 682.552 1183.02 682.552V683.136H1182.87C1182.47 683.136 1182.14 683.245 1181.9 683.464C1181.65 683.683 1181.53 684.048 1181.53 684.56V687H1180.97V682.632H1181.53V683.408ZM1184.15 681.808C1184.03 681.808 1183.94 681.768 1183.86 681.688C1183.78 681.608 1183.74 681.509 1183.74 681.392C1183.74 681.275 1183.78 681.179 1183.86 681.104C1183.94 681.024 1184.03 680.984 1184.15 680.984C1184.26 680.984 1184.35 681.024 1184.43 681.104C1184.51 681.179 1184.55 681.275 1184.55 681.392C1184.55 681.509 1184.51 681.608 1184.43 681.688C1184.35 681.768 1184.26 681.808 1184.15 681.808ZM1184.43 682.632V687H1183.87V682.632H1184.43ZM1187.74 682.552C1188.27 682.552 1188.69 682.715 1189.02 683.04C1189.35 683.36 1189.52 683.827 1189.52 684.44V687H1188.97V684.504C1188.97 684.029 1188.85 683.667 1188.61 683.416C1188.37 683.165 1188.05 683.04 1187.64 683.04C1187.22 683.04 1186.88 683.173 1186.63 683.44C1186.38 683.707 1186.25 684.099 1186.25 684.616V687H1185.69V682.632H1186.25V683.376C1186.39 683.109 1186.59 682.907 1186.85 682.768C1187.12 682.624 1187.41 682.552 1187.74 682.552ZM1192.84 682.552C1193.17 682.552 1193.46 682.621 1193.73 682.76C1193.99 682.899 1194.2 683.112 1194.35 683.4C1194.5 683.683 1194.58 684.029 1194.58 684.44V687H1194.03V684.504C1194.03 684.029 1193.91 683.667 1193.67 683.416C1193.43 683.165 1193.11 683.04 1192.7 683.04C1192.28 683.04 1191.94 683.173 1191.69 683.44C1191.44 683.707 1191.32 684.099 1191.32 684.616V687H1190.76V681.08H1191.32V683.376C1191.46 683.115 1191.66 682.912 1191.93 682.768C1192.2 682.624 1192.5 682.552 1192.84 682.552ZM1197.73 687.064C1197.32 687.064 1196.95 686.973 1196.62 686.792C1196.29 686.605 1196.04 686.344 1195.84 686.008C1195.66 685.667 1195.56 685.269 1195.56 684.816C1195.56 684.363 1195.66 683.968 1195.85 683.632C1196.04 683.291 1196.31 683.029 1196.64 682.848C1196.97 682.661 1197.34 682.568 1197.75 682.568C1198.16 682.568 1198.53 682.661 1198.86 682.848C1199.2 683.029 1199.46 683.291 1199.64 683.632C1199.84 683.968 1199.93 684.363 1199.93 684.816C1199.93 685.264 1199.84 685.659 1199.64 686C1199.45 686.341 1199.19 686.605 1198.85 686.792C1198.52 686.973 1198.14 687.064 1197.73 687.064ZM1197.73 686.576C1198.02 686.576 1198.29 686.512 1198.53 686.384C1198.78 686.251 1198.97 686.053 1199.12 685.792C1199.28 685.525 1199.36 685.2 1199.36 684.816C1199.36 684.432 1199.28 684.109 1199.13 683.848C1198.98 683.581 1198.79 683.384 1198.54 683.256C1198.29 683.123 1198.03 683.056 1197.74 683.056C1197.45 683.056 1197.19 683.123 1196.94 683.256C1196.69 683.384 1196.5 683.581 1196.35 683.848C1196.2 684.109 1196.13 684.432 1196.13 684.816C1196.13 685.2 1196.2 685.525 1196.35 685.792C1196.5 686.053 1196.69 686.251 1196.93 686.384C1197.18 686.512 1197.44 686.576 1197.73 686.576ZM1201.05 687.04C1200.93 687.04 1200.83 687 1200.75 686.92C1200.68 686.84 1200.64 686.741 1200.64 686.624C1200.64 686.507 1200.68 686.411 1200.75 686.336C1200.83 686.256 1200.93 686.216 1201.05 686.216C1201.16 686.216 1201.25 686.256 1201.33 686.336C1201.41 686.411 1201.45 686.507 1201.45 686.624C1201.45 686.741 1201.41 686.84 1201.33 686.92C1201.25 687 1201.16 687.04 1201.05 687.04ZM1202.15 684.816C1202.15 684.363 1202.24 683.968 1202.42 683.632C1202.6 683.291 1202.85 683.029 1203.17 682.848C1203.49 682.661 1203.86 682.568 1204.27 682.568C1204.81 682.568 1205.25 682.701 1205.6 682.968C1205.95 683.235 1206.18 683.597 1206.28 684.056H1205.68C1205.6 683.741 1205.44 683.496 1205.19 683.32C1204.94 683.139 1204.64 683.048 1204.27 683.048C1203.98 683.048 1203.71 683.115 1203.48 683.248C1203.24 683.381 1203.06 683.581 1202.92 683.848C1202.78 684.109 1202.72 684.432 1202.72 684.816C1202.72 685.2 1202.78 685.525 1202.92 685.792C1203.06 686.059 1203.24 686.259 1203.48 686.392C1203.71 686.525 1203.98 686.592 1204.27 686.592C1204.64 686.592 1204.94 686.504 1205.19 686.328C1205.44 686.147 1205.6 685.896 1205.68 685.576H1206.28C1206.18 686.024 1205.95 686.384 1205.6 686.656C1205.25 686.928 1204.8 687.064 1204.27 687.064C1203.86 687.064 1203.49 686.973 1203.17 686.792C1202.85 686.605 1202.6 686.344 1202.42 686.008C1202.24 685.667 1202.15 685.269 1202.15 684.816ZM1209.22 687.064C1208.81 687.064 1208.44 686.973 1208.11 686.792C1207.79 686.605 1207.53 686.344 1207.34 686.008C1207.15 685.667 1207.06 685.269 1207.06 684.816C1207.06 684.363 1207.15 683.968 1207.34 683.632C1207.54 683.291 1207.8 683.029 1208.13 682.848C1208.46 682.661 1208.83 682.568 1209.24 682.568C1209.65 682.568 1210.02 682.661 1210.35 682.848C1210.69 683.029 1210.95 683.291 1211.14 683.632C1211.33 683.968 1211.42 684.363 1211.42 684.816C1211.42 685.264 1211.33 685.659 1211.14 686C1210.94 686.341 1210.68 686.605 1210.34 686.792C1210.01 686.973 1209.63 687.064 1209.22 687.064ZM1209.22 686.576C1209.51 686.576 1209.78 686.512 1210.02 686.384C1210.27 686.251 1210.47 686.053 1210.62 685.792C1210.77 685.525 1210.85 685.2 1210.85 684.816C1210.85 684.432 1210.77 684.109 1210.62 683.848C1210.47 683.581 1210.28 683.384 1210.03 683.256C1209.79 683.123 1209.52 683.056 1209.23 683.056C1208.94 683.056 1208.68 683.123 1208.43 683.256C1208.19 683.384 1207.99 683.581 1207.84 683.848C1207.7 684.109 1207.62 684.432 1207.62 684.816C1207.62 685.2 1207.7 685.525 1207.84 685.792C1207.99 686.053 1208.18 686.251 1208.42 686.384C1208.67 686.512 1208.94 686.576 1209.22 686.576ZM1217.64 682.552C1218.16 682.552 1218.57 682.715 1218.89 683.04C1219.22 683.36 1219.38 683.827 1219.38 684.44V687H1218.83V684.504C1218.83 684.029 1218.71 683.667 1218.48 683.416C1218.26 683.165 1217.94 683.04 1217.55 683.04C1217.14 683.04 1216.81 683.176 1216.56 683.448C1216.32 683.72 1216.2 684.115 1216.2 684.632V687H1215.64V684.504C1215.64 684.029 1215.53 683.667 1215.3 683.416C1215.07 683.165 1214.76 683.04 1214.36 683.04C1213.95 683.04 1213.62 683.176 1213.37 683.448C1213.13 683.72 1213 684.115 1213 684.632V687H1212.44V682.632H1213V683.384C1213.14 683.112 1213.34 682.907 1213.6 682.768C1213.85 682.624 1214.14 682.552 1214.45 682.552C1214.83 682.552 1215.16 682.643 1215.44 682.824C1215.73 683.005 1215.94 683.272 1216.07 683.624C1216.19 683.277 1216.39 683.013 1216.67 682.832C1216.96 682.645 1217.28 682.552 1217.64 682.552ZM1220.72 687.04C1220.6 687.04 1220.5 687 1220.42 686.92C1220.35 686.84 1220.31 686.741 1220.31 686.624C1220.31 686.507 1220.35 686.411 1220.42 686.336C1220.5 686.256 1220.6 686.216 1220.72 686.216C1220.83 686.216 1220.93 686.256 1221 686.336C1221.08 686.411 1221.12 686.507 1221.12 686.624C1221.12 686.741 1221.08 686.84 1221 686.92C1220.93 687 1220.83 687.04 1220.72 687.04ZM1222.63 683.6C1222.77 683.296 1222.99 683.048 1223.29 682.856C1223.6 682.664 1223.95 682.568 1224.37 682.568C1224.77 682.568 1225.12 682.661 1225.44 682.848C1225.75 683.029 1226 683.291 1226.17 683.632C1226.35 683.968 1226.45 684.36 1226.45 684.808C1226.45 685.256 1226.35 685.651 1226.17 685.992C1226 686.333 1225.75 686.597 1225.43 686.784C1225.11 686.971 1224.76 687.064 1224.37 687.064C1223.95 687.064 1223.59 686.971 1223.29 686.784C1222.99 686.592 1222.77 686.344 1222.63 686.04V687H1222.08V681.08H1222.63V683.6ZM1225.88 684.808C1225.88 684.445 1225.81 684.133 1225.66 683.872C1225.52 683.605 1225.33 683.403 1225.09 683.264C1224.84 683.125 1224.56 683.056 1224.25 683.056C1223.95 683.056 1223.68 683.128 1223.43 683.272C1223.18 683.416 1222.99 683.621 1222.85 683.888C1222.7 684.155 1222.63 684.464 1222.63 684.816C1222.63 685.168 1222.7 685.477 1222.85 685.744C1222.99 686.011 1223.18 686.216 1223.43 686.36C1223.68 686.504 1223.95 686.576 1224.25 686.576C1224.56 686.576 1224.84 686.507 1225.09 686.368C1225.33 686.224 1225.52 686.019 1225.66 685.752C1225.81 685.48 1225.88 685.165 1225.88 684.808ZM1228.04 683.408C1228.16 683.136 1228.35 682.925 1228.6 682.776C1228.85 682.627 1229.16 682.552 1229.53 682.552V683.136H1229.38C1228.97 683.136 1228.65 683.245 1228.4 683.464C1228.16 683.683 1228.04 684.048 1228.04 684.56V687H1227.48V682.632H1228.04V683.408Z" fill="#747474" fill-opacity="0.7"/>
<path d="M1071.23 681.384C1072.18 681.384 1072.91 681.632 1073.42 682.128C1073.94 682.624 1074.2 683.315 1074.2 684.2C1074.2 685.085 1073.94 685.773 1073.42 686.264C1072.91 686.755 1072.18 687 1071.23 687H1069.66V681.384H1071.23ZM1071.23 686.696C1072.08 686.696 1072.73 686.477 1073.17 686.04C1073.61 685.597 1073.83 684.984 1073.83 684.2C1073.83 683.411 1073.61 682.795 1073.17 682.352C1072.73 681.909 1072.08 681.688 1071.23 681.688H1070.02V686.696H1071.23ZM1079.2 684.536C1079.2 684.728 1079.2 684.872 1079.18 684.968H1075.43C1075.44 685.357 1075.53 685.685 1075.69 685.952C1075.85 686.219 1076.06 686.419 1076.32 686.552C1076.58 686.685 1076.87 686.752 1077.18 686.752C1077.6 686.752 1077.96 686.648 1078.25 686.44C1078.54 686.227 1078.72 685.939 1078.79 685.576H1079.17C1079.08 686.019 1078.86 686.379 1078.51 686.656C1078.16 686.928 1077.72 687.064 1077.18 687.064C1076.77 687.064 1076.41 686.973 1076.09 686.792C1075.77 686.611 1075.52 686.352 1075.34 686.016C1075.16 685.675 1075.06 685.277 1075.06 684.824C1075.06 684.371 1075.15 683.976 1075.33 683.64C1075.51 683.304 1075.76 683.048 1076.08 682.872C1076.4 682.691 1076.77 682.6 1077.18 682.6C1077.59 682.6 1077.95 682.691 1078.26 682.872C1078.57 683.048 1078.8 683.285 1078.96 683.584C1079.12 683.877 1079.2 684.195 1079.2 684.536ZM1078.84 684.672C1078.86 684.288 1078.79 683.963 1078.63 683.696C1078.48 683.429 1078.28 683.232 1078.02 683.104C1077.76 682.971 1077.47 682.904 1077.17 682.904C1076.86 682.904 1076.58 682.971 1076.32 683.104C1076.06 683.232 1075.85 683.429 1075.69 683.696C1075.53 683.963 1075.44 684.288 1075.43 684.672H1078.84ZM1081.74 687.064C1081.25 687.064 1080.85 686.957 1080.54 686.744C1080.24 686.531 1080.07 686.227 1080.03 685.832H1080.4C1080.43 686.115 1080.56 686.339 1080.78 686.504C1081.02 686.669 1081.34 686.752 1081.74 686.752C1082.07 686.752 1082.33 686.669 1082.52 686.504C1082.72 686.333 1082.82 686.125 1082.82 685.88C1082.82 685.709 1082.76 685.571 1082.66 685.464C1082.56 685.352 1082.43 685.267 1082.27 685.208C1082.12 685.149 1081.91 685.085 1081.64 685.016C1081.32 684.931 1081.06 684.848 1080.86 684.768C1080.67 684.683 1080.5 684.557 1080.36 684.392C1080.22 684.227 1080.15 684.005 1080.15 683.728C1080.15 683.525 1080.21 683.339 1080.34 683.168C1080.46 682.992 1080.63 682.853 1080.85 682.752C1081.07 682.651 1081.32 682.6 1081.59 682.6C1082.05 682.6 1082.41 682.715 1082.69 682.944C1082.97 683.168 1083.12 683.48 1083.14 683.88H1082.78C1082.77 683.592 1082.66 683.357 1082.45 683.176C1082.24 682.995 1081.95 682.904 1081.58 682.904C1081.28 682.904 1081.02 682.984 1080.82 683.144C1080.61 683.304 1080.51 683.499 1080.51 683.728C1080.51 683.931 1080.57 684.096 1080.68 684.224C1080.8 684.347 1080.94 684.443 1081.1 684.512C1081.28 684.576 1081.5 684.645 1081.78 684.72C1082.08 684.8 1082.32 684.88 1082.5 684.96C1082.69 685.035 1082.85 685.147 1082.98 685.296C1083.1 685.44 1083.17 685.635 1083.17 685.88C1083.17 686.104 1083.11 686.307 1082.98 686.488C1082.86 686.669 1082.69 686.811 1082.47 686.912C1082.25 687.013 1082.01 687.064 1081.74 687.064ZM1084.45 681.688C1084.36 681.688 1084.29 681.661 1084.23 681.608C1084.17 681.549 1084.15 681.472 1084.15 681.376C1084.15 681.285 1084.17 681.211 1084.23 681.152C1084.29 681.093 1084.36 681.064 1084.45 681.064C1084.53 681.064 1084.61 681.093 1084.67 681.152C1084.72 681.211 1084.75 681.285 1084.75 681.376C1084.75 681.472 1084.72 681.549 1084.67 681.608C1084.61 681.661 1084.53 681.688 1084.45 681.688ZM1084.63 682.656V687H1084.27V682.656H1084.63ZM1087.82 682.6C1088.28 682.6 1088.67 682.712 1088.99 682.936C1089.31 683.155 1089.53 683.437 1089.66 683.784V682.656H1090.02V687.136C1090.02 687.536 1089.93 687.885 1089.75 688.184C1089.58 688.488 1089.34 688.72 1089.04 688.88C1088.74 689.045 1088.41 689.128 1088.04 689.128C1087.5 689.128 1087.05 688.997 1086.69 688.736C1086.33 688.475 1086.1 688.123 1085.99 687.68H1086.35C1086.45 688.027 1086.65 688.301 1086.95 688.504C1087.24 688.712 1087.6 688.816 1088.04 688.816C1088.35 688.816 1088.62 688.747 1088.87 688.608C1089.11 688.475 1089.3 688.28 1089.44 688.024C1089.59 687.773 1089.66 687.477 1089.66 687.136V685.864C1089.53 686.211 1089.3 686.499 1088.98 686.728C1088.66 686.952 1088.27 687.064 1087.82 687.064C1087.41 687.064 1087.05 686.973 1086.73 686.792C1086.41 686.605 1086.17 686.344 1085.99 686.008C1085.81 685.667 1085.72 685.272 1085.72 684.824C1085.72 684.376 1085.81 683.984 1085.99 683.648C1086.17 683.312 1086.41 683.053 1086.73 682.872C1087.05 682.691 1087.41 682.6 1087.82 682.6ZM1089.66 684.824C1089.66 684.445 1089.58 684.112 1089.42 683.824C1089.26 683.531 1089.05 683.307 1088.78 683.152C1088.51 682.992 1088.2 682.912 1087.87 682.912C1087.51 682.912 1087.2 682.989 1086.94 683.144C1086.67 683.293 1086.46 683.512 1086.31 683.8C1086.16 684.088 1086.09 684.429 1086.09 684.824C1086.09 685.219 1086.16 685.56 1086.31 685.848C1086.46 686.136 1086.67 686.357 1086.94 686.512C1087.21 686.667 1087.52 686.744 1087.87 686.744C1088.2 686.744 1088.51 686.667 1088.78 686.512C1089.05 686.352 1089.27 686.128 1089.43 685.84C1089.58 685.547 1089.66 685.208 1089.66 684.824ZM1093.29 682.568C1093.81 682.568 1094.23 682.728 1094.55 683.048C1094.88 683.363 1095.04 683.832 1095.04 684.456V687H1094.69V684.48C1094.69 683.963 1094.56 683.568 1094.3 683.296C1094.03 683.019 1093.68 682.88 1093.23 682.88C1092.76 682.88 1092.39 683.029 1092.1 683.328C1091.83 683.627 1091.69 684.069 1091.69 684.656V687H1091.33V682.656H1091.69V683.576C1091.81 683.251 1092.01 683.003 1092.3 682.832C1092.58 682.656 1092.91 682.568 1093.29 682.568ZM1098.93 683.8C1099.06 683.448 1099.29 683.16 1099.61 682.936C1099.93 682.712 1100.32 682.6 1100.77 682.6C1101.18 682.6 1101.54 682.691 1101.85 682.872C1102.17 683.053 1102.42 683.312 1102.59 683.648C1102.78 683.984 1102.87 684.376 1102.87 684.824C1102.87 685.272 1102.78 685.667 1102.59 686.008C1102.42 686.344 1102.17 686.605 1101.85 686.792C1101.54 686.973 1101.18 687.064 1100.77 687.064C1100.32 687.064 1099.93 686.952 1099.6 686.728C1099.28 686.504 1099.06 686.216 1098.93 685.864V687H1098.57V681.08H1098.93V683.8ZM1102.5 684.824C1102.5 684.429 1102.42 684.088 1102.27 683.8C1102.12 683.512 1101.91 683.293 1101.64 683.144C1101.38 682.989 1101.07 682.912 1100.71 682.912C1100.38 682.912 1100.07 682.992 1099.8 683.152C1099.53 683.307 1099.32 683.531 1099.16 683.824C1099.01 684.112 1098.93 684.445 1098.93 684.824C1098.93 685.208 1099.01 685.547 1099.16 685.84C1099.32 686.128 1099.53 686.352 1099.8 686.512C1100.07 686.667 1100.38 686.744 1100.71 686.744C1101.07 686.744 1101.38 686.667 1101.64 686.512C1101.91 686.357 1102.12 686.136 1102.27 685.848C1102.42 685.56 1102.5 685.219 1102.5 684.824ZM1107.34 682.656L1104.82 689.04H1104.45L1105.26 687L1103.43 682.656H1103.82L1105.46 686.6L1106.98 682.656H1107.34ZM1108.09 687.024C1108 687.024 1107.93 686.995 1107.87 686.936C1107.81 686.877 1107.78 686.803 1107.78 686.712C1107.78 686.621 1107.81 686.547 1107.87 686.488C1107.93 686.429 1108 686.4 1108.09 686.4C1108.18 686.4 1108.25 686.429 1108.31 686.488C1108.37 686.547 1108.4 686.621 1108.4 686.712C1108.4 686.803 1108.37 686.877 1108.31 686.936C1108.25 686.995 1108.18 687.024 1108.09 687.024ZM1108.09 683.472C1108 683.472 1107.93 683.443 1107.87 683.384C1107.81 683.325 1107.78 683.251 1107.78 683.16C1107.78 683.069 1107.81 682.995 1107.87 682.936C1107.93 682.877 1108 682.848 1108.09 682.848C1108.18 682.848 1108.25 682.877 1108.31 682.936C1108.37 682.995 1108.4 683.069 1108.4 683.16C1108.4 683.251 1108.37 683.325 1108.31 683.384C1108.25 683.443 1108.18 683.472 1108.09 683.472Z" fill="#747474" fill-opacity="0.7"/>
<defs>
<linearGradient id="paint0_linear_23_86" x1="-2.29535e-05" y1="14" x2="1280" y2="730" gradientUnits="userSpaceOnUse">
<stop stop-color="#EF9FFF" stop-opacity="0.43"/>
<stop offset="1" stop-color="#8EB2FF" stop-opacity="0.5"/>
</linearGradient>
<linearGradient id="paint1_linear_23_86" x1="77" y1="30" x2="77" y2="690" gradientUnits="userSpaceOnUse">
<stop stop-color="#A45AFF"/>
<stop offset="1" stop-color="#C697FF"/>
</linearGradient>
</defs>
</svg>
