<svg width="1280" height="720" viewBox="0 0 1280 720" fill="none" xmlns="http://www.w3.org/2000/svg">
<rect width="1280" height="720" fill="url(#paint0_linear_23_116)"/>
<rect x="20" y="20" width="1240" height="680" rx="30" fill="white"/>
<rect x="30" y="30" width="1220" height="660" rx="30" fill="#F4E5FE" fill-opacity="0.8"/>
<path d="M30 60C30 43.4315 43.4315 30 60 30H109C117.284 30 124 36.7157 124 45V675C124 683.284 117.284 690 109 690H60C43.4315 690 30 676.569 30 660V60Z" fill="url(#paint1_linear_23_116)"/>
<rect x="144" y="196" width="732" height="187" rx="10" fill="white"/>
<rect x="144" y="403" width="732" height="267" rx="10" fill="white"/>
<path d="M896 45C896 36.7157 902.716 30 911 30H1220C1236.57 30 1250 43.4315 1250 60V660C1250 676.569 1236.57 690 1220 690H911C902.716 690 896 683.284 896 675V45Z" fill="white"/>
<rect x="144" y="76" width="230.667" height="100" rx="10" fill="white"/>
<rect x="394.667" y="76" width="230.667" height="100" rx="10" fill="white"/>
<rect x="645.333" y="76" width="230.667" height="100" rx="10" fill="white"/>
<rect x="916.5" y="76.5" width="323" height="183.667" rx="14.5" fill="white" stroke="#E2E2E2"/>
<rect x="916.5" y="281.167" width="323" height="183.667" rx="14.5" fill="white" stroke="#E2E2E2"/>
<rect x="916.5" y="485.833" width="323" height="183.667" rx="14.5" fill="white" stroke="#E2E2E2"/>
<path d="M1133.4 678.632L1132.03 683H1131.47L1130.26 679.336L1129.06 683H1128.49L1127.12 678.632H1127.69L1128.78 682.432L1130 678.632H1130.56L1131.77 682.44L1132.85 678.632H1133.4ZM1139.92 678.632L1138.56 683H1138L1136.79 679.336L1135.58 683H1135.01L1133.64 678.632H1134.21L1135.3 682.432L1136.52 678.632H1137.08L1138.29 682.44L1139.37 678.632H1139.92ZM1146.45 678.632L1145.08 683H1144.52L1143.31 679.336L1142.1 683H1141.53L1140.17 678.632H1140.73L1141.82 682.432L1143.05 678.632H1143.61L1144.81 682.44L1145.89 678.632H1146.45ZM1147.31 683.04C1147.19 683.04 1147.09 683 1147.01 682.92C1146.94 682.84 1146.9 682.741 1146.9 682.624C1146.9 682.507 1146.94 682.411 1147.01 682.336C1147.09 682.256 1147.19 682.216 1147.31 682.216C1147.42 682.216 1147.51 682.256 1147.59 682.336C1147.67 682.411 1147.71 682.507 1147.71 682.624C1147.71 682.741 1147.67 682.84 1147.59 682.92C1147.51 683 1147.42 683.04 1147.31 683.04ZM1152.62 680.592C1152.62 680.784 1152.61 680.931 1152.6 681.032H1148.98C1148.99 681.363 1149.07 681.645 1149.22 681.88C1149.36 682.115 1149.55 682.293 1149.78 682.416C1150.02 682.533 1150.27 682.592 1150.55 682.592C1150.91 682.592 1151.22 682.504 1151.46 682.328C1151.71 682.152 1151.88 681.915 1151.96 681.616H1152.55C1152.44 682.043 1152.22 682.392 1151.86 682.664C1151.52 682.931 1151.08 683.064 1150.55 683.064C1150.14 683.064 1149.77 682.973 1149.45 682.792C1149.12 682.605 1148.87 682.344 1148.68 682.008C1148.5 681.667 1148.41 681.269 1148.41 680.816C1148.41 680.363 1148.5 679.965 1148.68 679.624C1148.86 679.283 1149.11 679.021 1149.44 678.84C1149.76 678.659 1150.14 678.568 1150.55 678.568C1150.97 678.568 1151.33 678.659 1151.64 678.84C1151.95 679.021 1152.19 679.267 1152.36 679.576C1152.53 679.88 1152.62 680.219 1152.62 680.592ZM1152.05 680.576C1152.05 680.251 1151.99 679.973 1151.85 679.744C1151.71 679.515 1151.53 679.341 1151.3 679.224C1151.06 679.107 1150.8 679.048 1150.53 679.048C1150.11 679.048 1149.76 679.181 1149.46 679.448C1149.17 679.715 1149.01 680.091 1148.98 680.576H1152.05ZM1153.38 680.808C1153.38 680.36 1153.47 679.968 1153.66 679.632C1153.84 679.291 1154.09 679.029 1154.4 678.848C1154.72 678.661 1155.08 678.568 1155.48 678.568C1155.86 678.568 1156.21 678.661 1156.52 678.848C1156.83 679.035 1157.06 679.277 1157.2 679.576V677.08H1157.76V683H1157.2V682.024C1157.07 682.328 1156.85 682.579 1156.54 682.776C1156.24 682.968 1155.88 683.064 1155.47 683.064C1155.07 683.064 1154.71 682.971 1154.39 682.784C1154.08 682.597 1153.83 682.333 1153.65 681.992C1153.47 681.651 1153.38 681.256 1153.38 680.808ZM1157.2 680.816C1157.2 680.464 1157.13 680.155 1156.98 679.888C1156.84 679.621 1156.64 679.416 1156.39 679.272C1156.15 679.128 1155.87 679.056 1155.58 679.056C1155.27 679.056 1154.99 679.125 1154.74 679.264C1154.5 679.403 1154.3 679.605 1154.16 679.872C1154.02 680.133 1153.95 680.445 1153.95 680.808C1153.95 681.165 1154.02 681.48 1154.16 681.752C1154.3 682.019 1154.5 682.224 1154.74 682.368C1154.99 682.507 1155.27 682.576 1155.58 682.576C1155.87 682.576 1156.15 682.504 1156.39 682.36C1156.64 682.216 1156.84 682.011 1156.98 681.744C1157.13 681.477 1157.2 681.168 1157.2 680.816ZM1159.32 677.808C1159.21 677.808 1159.11 677.768 1159.03 677.688C1158.95 677.608 1158.91 677.509 1158.91 677.392C1158.91 677.275 1158.95 677.179 1159.03 677.104C1159.11 677.024 1159.21 676.984 1159.32 676.984C1159.43 676.984 1159.53 677.024 1159.61 677.104C1159.69 677.179 1159.73 677.275 1159.73 677.392C1159.73 677.509 1159.69 677.608 1159.61 677.688C1159.53 677.768 1159.43 677.808 1159.32 677.808ZM1159.6 678.632V683H1159.04V678.632H1159.6ZM1162.91 678.552C1163.44 678.552 1163.86 678.715 1164.19 679.04C1164.53 679.36 1164.69 679.827 1164.69 680.44V683H1164.14V680.504C1164.14 680.029 1164.02 679.667 1163.78 679.416C1163.54 679.165 1163.22 679.04 1162.81 679.04C1162.39 679.04 1162.05 679.173 1161.8 679.44C1161.55 679.707 1161.43 680.099 1161.43 680.616V683H1160.87V678.632H1161.43V679.376C1161.57 679.109 1161.77 678.907 1162.03 678.768C1162.29 678.624 1162.58 678.552 1162.91 678.552ZM1165.67 680.808C1165.67 680.36 1165.76 679.968 1165.94 679.632C1166.12 679.291 1166.37 679.029 1166.68 678.848C1167 678.661 1167.36 678.568 1167.76 678.568C1168.18 678.568 1168.53 678.664 1168.83 678.856C1169.14 679.048 1169.36 679.293 1169.49 679.592V678.632H1170.05V683H1169.49V682.032C1169.35 682.331 1169.13 682.579 1168.83 682.776C1168.53 682.968 1168.17 683.064 1167.75 683.064C1167.36 683.064 1167 682.971 1166.68 682.784C1166.37 682.597 1166.12 682.333 1165.94 681.992C1165.76 681.651 1165.67 681.256 1165.67 680.808ZM1169.49 680.816C1169.49 680.464 1169.42 680.155 1169.27 679.888C1169.13 679.621 1168.93 679.416 1168.68 679.272C1168.44 679.128 1168.16 679.056 1167.87 679.056C1167.56 679.056 1167.28 679.125 1167.03 679.264C1166.79 679.403 1166.59 679.605 1166.45 679.872C1166.31 680.133 1166.24 680.445 1166.24 680.808C1166.24 681.165 1166.31 681.48 1166.45 681.752C1166.59 682.019 1166.79 682.224 1167.03 682.368C1167.28 682.507 1167.56 682.576 1167.87 682.576C1168.16 682.576 1168.44 682.504 1168.68 682.36C1168.93 682.216 1169.13 682.011 1169.27 681.744C1169.42 681.477 1169.49 681.168 1169.49 680.816ZM1173.38 678.552C1173.9 678.552 1174.32 678.715 1174.66 679.04C1174.99 679.36 1175.15 679.827 1175.15 680.44V683H1174.6V680.504C1174.6 680.029 1174.48 679.667 1174.24 679.416C1174 679.165 1173.68 679.04 1173.27 679.04C1172.85 679.04 1172.51 679.173 1172.26 679.44C1172.01 679.707 1171.89 680.099 1171.89 680.616V683H1171.33V678.632H1171.89V679.376C1172.03 679.109 1172.23 678.907 1172.49 678.768C1172.75 678.624 1173.04 678.552 1173.38 678.552ZM1181.59 678.552C1182.1 678.552 1182.52 678.715 1182.84 679.04C1183.16 679.36 1183.33 679.827 1183.33 680.44V683H1182.77V680.504C1182.77 680.029 1182.66 679.667 1182.43 679.416C1182.2 679.165 1181.89 679.04 1181.49 679.04C1181.08 679.04 1180.76 679.176 1180.51 679.448C1180.26 679.72 1180.14 680.115 1180.14 680.632V683H1179.59V680.504C1179.59 680.029 1179.48 679.667 1179.25 679.416C1179.02 679.165 1178.7 679.04 1178.3 679.04C1177.89 679.04 1177.56 679.176 1177.32 679.448C1177.07 679.72 1176.95 680.115 1176.95 680.632V683H1176.39V678.632H1176.95V679.384C1177.09 679.112 1177.29 678.907 1177.54 678.768C1177.8 678.624 1178.08 678.552 1178.4 678.552C1178.78 678.552 1179.11 678.643 1179.39 678.824C1179.68 679.005 1179.89 679.272 1180.01 679.624C1180.13 679.277 1180.33 679.013 1180.61 678.832C1180.9 678.645 1181.23 678.552 1181.59 678.552ZM1184.31 680.808C1184.31 680.36 1184.4 679.968 1184.58 679.632C1184.76 679.291 1185.01 679.029 1185.32 678.848C1185.64 678.661 1186 678.568 1186.4 678.568C1186.82 678.568 1187.18 678.664 1187.47 678.856C1187.78 679.048 1188 679.293 1188.13 679.592V678.632H1188.69V683H1188.13V682.032C1187.99 682.331 1187.77 682.579 1187.47 682.776C1187.17 682.968 1186.81 683.064 1186.39 683.064C1186 683.064 1185.64 682.971 1185.32 682.784C1185.01 682.597 1184.76 682.333 1184.58 681.992C1184.4 681.651 1184.31 681.256 1184.31 680.808ZM1188.13 680.816C1188.13 680.464 1188.06 680.155 1187.91 679.888C1187.77 679.621 1187.57 679.416 1187.32 679.272C1187.08 679.128 1186.8 679.056 1186.51 679.056C1186.2 679.056 1185.92 679.125 1185.67 679.264C1185.43 679.403 1185.23 679.605 1185.09 679.872C1184.95 680.133 1184.88 680.445 1184.88 680.808C1184.88 681.165 1184.95 681.48 1185.09 681.752C1185.23 682.019 1185.43 682.224 1185.67 682.368C1185.92 682.507 1186.2 682.576 1186.51 682.576C1186.8 682.576 1187.08 682.504 1187.32 682.36C1187.57 682.216 1187.77 682.011 1187.91 681.744C1188.06 681.477 1188.13 681.168 1188.13 680.816ZM1190.53 679.408C1190.65 679.136 1190.84 678.925 1191.09 678.776C1191.34 678.627 1191.66 678.552 1192.02 678.552V679.136H1191.87C1191.47 679.136 1191.14 679.245 1190.9 679.464C1190.65 679.683 1190.53 680.048 1190.53 680.56V683H1189.97V678.632H1190.53V679.408ZM1193.15 677.808C1193.03 677.808 1192.94 677.768 1192.86 677.688C1192.78 677.608 1192.74 677.509 1192.74 677.392C1192.74 677.275 1192.78 677.179 1192.86 677.104C1192.94 677.024 1193.03 676.984 1193.15 676.984C1193.26 676.984 1193.35 677.024 1193.43 677.104C1193.51 677.179 1193.55 677.275 1193.55 677.392C1193.55 677.509 1193.51 677.608 1193.43 677.688C1193.35 677.768 1193.26 677.808 1193.15 677.808ZM1193.43 678.632V683H1192.87V678.632H1193.43ZM1196.74 678.552C1197.27 678.552 1197.69 678.715 1198.02 679.04C1198.35 679.36 1198.52 679.827 1198.52 680.44V683H1197.97V680.504C1197.97 680.029 1197.85 679.667 1197.61 679.416C1197.37 679.165 1197.05 679.04 1196.64 679.04C1196.22 679.04 1195.88 679.173 1195.63 679.44C1195.38 679.707 1195.25 680.099 1195.25 680.616V683H1194.69V678.632H1195.25V679.376C1195.39 679.109 1195.59 678.907 1195.85 678.768C1196.12 678.624 1196.41 678.552 1196.74 678.552ZM1201.84 678.552C1202.17 678.552 1202.46 678.621 1202.73 678.76C1202.99 678.899 1203.2 679.112 1203.35 679.4C1203.5 679.683 1203.58 680.029 1203.58 680.44V683H1203.03V680.504C1203.03 680.029 1202.91 679.667 1202.67 679.416C1202.43 679.165 1202.11 679.04 1201.7 679.04C1201.28 679.04 1200.94 679.173 1200.69 679.44C1200.44 679.707 1200.32 680.099 1200.32 680.616V683H1199.76V677.08H1200.32V679.376C1200.46 679.115 1200.66 678.912 1200.93 678.768C1201.2 678.624 1201.5 678.552 1201.84 678.552ZM1206.73 683.064C1206.32 683.064 1205.95 682.973 1205.62 682.792C1205.29 682.605 1205.04 682.344 1204.84 682.008C1204.66 681.667 1204.56 681.269 1204.56 680.816C1204.56 680.363 1204.66 679.968 1204.85 679.632C1205.04 679.291 1205.31 679.029 1205.64 678.848C1205.97 678.661 1206.34 678.568 1206.75 678.568C1207.16 678.568 1207.53 678.661 1207.86 678.848C1208.2 679.029 1208.46 679.291 1208.64 679.632C1208.84 679.968 1208.93 680.363 1208.93 680.816C1208.93 681.264 1208.84 681.659 1208.64 682C1208.45 682.341 1208.19 682.605 1207.85 682.792C1207.52 682.973 1207.14 683.064 1206.73 683.064ZM1206.73 682.576C1207.02 682.576 1207.29 682.512 1207.53 682.384C1207.78 682.251 1207.97 682.053 1208.12 681.792C1208.28 681.525 1208.36 681.2 1208.36 680.816C1208.36 680.432 1208.28 680.109 1208.13 679.848C1207.98 679.581 1207.79 679.384 1207.54 679.256C1207.29 679.123 1207.03 679.056 1206.74 679.056C1206.45 679.056 1206.19 679.123 1205.94 679.256C1205.69 679.384 1205.5 679.581 1205.35 679.848C1205.2 680.109 1205.13 680.432 1205.13 680.816C1205.13 681.2 1205.2 681.525 1205.35 681.792C1205.5 682.053 1205.69 682.251 1205.93 682.384C1206.18 682.512 1206.44 682.576 1206.73 682.576ZM1210.05 683.04C1209.93 683.04 1209.83 683 1209.75 682.92C1209.68 682.84 1209.64 682.741 1209.64 682.624C1209.64 682.507 1209.68 682.411 1209.75 682.336C1209.83 682.256 1209.93 682.216 1210.05 682.216C1210.16 682.216 1210.25 682.256 1210.33 682.336C1210.41 682.411 1210.45 682.507 1210.45 682.624C1210.45 682.741 1210.41 682.84 1210.33 682.92C1210.25 683 1210.16 683.04 1210.05 683.04ZM1211.15 680.816C1211.15 680.363 1211.24 679.968 1211.42 679.632C1211.6 679.291 1211.85 679.029 1212.17 678.848C1212.49 678.661 1212.86 678.568 1213.27 678.568C1213.81 678.568 1214.25 678.701 1214.6 678.968C1214.95 679.235 1215.18 679.597 1215.28 680.056H1214.68C1214.6 679.741 1214.44 679.496 1214.19 679.32C1213.94 679.139 1213.64 679.048 1213.27 679.048C1212.98 679.048 1212.71 679.115 1212.48 679.248C1212.24 679.381 1212.06 679.581 1211.92 679.848C1211.78 680.109 1211.72 680.432 1211.72 680.816C1211.72 681.2 1211.78 681.525 1211.92 681.792C1212.06 682.059 1212.24 682.259 1212.48 682.392C1212.71 682.525 1212.98 682.592 1213.27 682.592C1213.64 682.592 1213.94 682.504 1214.19 682.328C1214.44 682.147 1214.6 681.896 1214.68 681.576H1215.28C1215.18 682.024 1214.95 682.384 1214.6 682.656C1214.25 682.928 1213.8 683.064 1213.27 683.064C1212.86 683.064 1212.49 682.973 1212.17 682.792C1211.85 682.605 1211.6 682.344 1211.42 682.008C1211.24 681.667 1211.15 681.269 1211.15 680.816ZM1218.22 683.064C1217.81 683.064 1217.44 682.973 1217.11 682.792C1216.79 682.605 1216.53 682.344 1216.34 682.008C1216.15 681.667 1216.06 681.269 1216.06 680.816C1216.06 680.363 1216.15 679.968 1216.34 679.632C1216.54 679.291 1216.8 679.029 1217.13 678.848C1217.46 678.661 1217.83 678.568 1218.24 678.568C1218.65 678.568 1219.02 678.661 1219.35 678.848C1219.69 679.029 1219.95 679.291 1220.14 679.632C1220.33 679.968 1220.42 680.363 1220.42 680.816C1220.42 681.264 1220.33 681.659 1220.14 682C1219.94 682.341 1219.68 682.605 1219.34 682.792C1219.01 682.973 1218.63 683.064 1218.22 683.064ZM1218.22 682.576C1218.51 682.576 1218.78 682.512 1219.02 682.384C1219.27 682.251 1219.47 682.053 1219.62 681.792C1219.77 681.525 1219.85 681.2 1219.85 680.816C1219.85 680.432 1219.77 680.109 1219.62 679.848C1219.47 679.581 1219.28 679.384 1219.03 679.256C1218.79 679.123 1218.52 679.056 1218.23 679.056C1217.94 679.056 1217.68 679.123 1217.43 679.256C1217.19 679.384 1216.99 679.581 1216.84 679.848C1216.7 680.109 1216.62 680.432 1216.62 680.816C1216.62 681.2 1216.7 681.525 1216.84 681.792C1216.99 682.053 1217.18 682.251 1217.42 682.384C1217.67 682.512 1217.94 682.576 1218.22 682.576ZM1226.64 678.552C1227.16 678.552 1227.57 678.715 1227.89 679.04C1228.22 679.36 1228.38 679.827 1228.38 680.44V683H1227.83V680.504C1227.83 680.029 1227.71 679.667 1227.48 679.416C1227.26 679.165 1226.94 679.04 1226.55 679.04C1226.14 679.04 1225.81 679.176 1225.56 679.448C1225.32 679.72 1225.2 680.115 1225.2 680.632V683H1224.64V680.504C1224.64 680.029 1224.53 679.667 1224.3 679.416C1224.07 679.165 1223.76 679.04 1223.36 679.04C1222.95 679.04 1222.62 679.176 1222.37 679.448C1222.13 679.72 1222 680.115 1222 680.632V683H1221.44V678.632H1222V679.384C1222.14 679.112 1222.34 678.907 1222.6 678.768C1222.85 678.624 1223.14 678.552 1223.45 678.552C1223.83 678.552 1224.16 678.643 1224.44 678.824C1224.73 679.005 1224.94 679.272 1225.07 679.624C1225.19 679.277 1225.39 679.013 1225.67 678.832C1225.96 678.645 1226.28 678.552 1226.64 678.552ZM1229.72 683.04C1229.6 683.04 1229.5 683 1229.42 682.92C1229.35 682.84 1229.31 682.741 1229.31 682.624C1229.31 682.507 1229.35 682.411 1229.42 682.336C1229.5 682.256 1229.6 682.216 1229.72 682.216C1229.83 682.216 1229.93 682.256 1230 682.336C1230.08 682.411 1230.12 682.507 1230.12 682.624C1230.12 682.741 1230.08 682.84 1230 682.92C1229.93 683 1229.83 683.04 1229.72 683.04ZM1231.63 679.6C1231.77 679.296 1231.99 679.048 1232.29 678.856C1232.6 678.664 1232.95 678.568 1233.37 678.568C1233.77 678.568 1234.12 678.661 1234.44 678.848C1234.75 679.029 1235 679.291 1235.17 679.632C1235.35 679.968 1235.45 680.36 1235.45 680.808C1235.45 681.256 1235.35 681.651 1235.17 681.992C1235 682.333 1234.75 682.597 1234.43 682.784C1234.11 682.971 1233.76 683.064 1233.37 683.064C1232.95 683.064 1232.59 682.971 1232.29 682.784C1231.99 682.592 1231.77 682.344 1231.63 682.04V683H1231.08V677.08H1231.63V679.6ZM1234.88 680.808C1234.88 680.445 1234.81 680.133 1234.66 679.872C1234.52 679.605 1234.33 679.403 1234.09 679.264C1233.84 679.125 1233.56 679.056 1233.25 679.056C1232.95 679.056 1232.68 679.128 1232.43 679.272C1232.18 679.416 1231.99 679.621 1231.85 679.888C1231.7 680.155 1231.63 680.464 1231.63 680.816C1231.63 681.168 1231.7 681.477 1231.85 681.744C1231.99 682.011 1232.18 682.216 1232.43 682.36C1232.68 682.504 1232.95 682.576 1233.25 682.576C1233.56 682.576 1233.84 682.507 1234.09 682.368C1234.33 682.224 1234.52 682.019 1234.66 681.752C1234.81 681.48 1234.88 681.165 1234.88 680.808ZM1237.04 679.408C1237.16 679.136 1237.35 678.925 1237.6 678.776C1237.85 678.627 1238.16 678.552 1238.53 678.552V679.136H1238.38C1237.97 679.136 1237.65 679.245 1237.4 679.464C1237.16 679.683 1237.04 680.048 1237.04 680.56V683H1236.48V678.632H1237.04V679.408Z" fill="#747474" fill-opacity="0.7"/>
<path d="M1080.23 677.384C1081.18 677.384 1081.91 677.632 1082.42 678.128C1082.94 678.624 1083.2 679.315 1083.2 680.2C1083.2 681.085 1082.94 681.773 1082.42 682.264C1081.91 682.755 1081.18 683 1080.23 683H1078.66V677.384H1080.23ZM1080.23 682.696C1081.08 682.696 1081.73 682.477 1082.17 682.04C1082.61 681.597 1082.83 680.984 1082.83 680.2C1082.83 679.411 1082.61 678.795 1082.17 678.352C1081.73 677.909 1081.08 677.688 1080.23 677.688H1079.02V682.696H1080.23ZM1088.2 680.536C1088.2 680.728 1088.2 680.872 1088.18 680.968H1084.43C1084.44 681.357 1084.53 681.685 1084.69 681.952C1084.85 682.219 1085.06 682.419 1085.32 682.552C1085.58 682.685 1085.87 682.752 1086.18 682.752C1086.6 682.752 1086.96 682.648 1087.25 682.44C1087.54 682.227 1087.72 681.939 1087.79 681.576H1088.17C1088.08 682.019 1087.86 682.379 1087.51 682.656C1087.16 682.928 1086.72 683.064 1086.18 683.064C1085.77 683.064 1085.41 682.973 1085.09 682.792C1084.77 682.611 1084.52 682.352 1084.34 682.016C1084.16 681.675 1084.06 681.277 1084.06 680.824C1084.06 680.371 1084.15 679.976 1084.33 679.64C1084.51 679.304 1084.76 679.048 1085.08 678.872C1085.4 678.691 1085.77 678.6 1086.18 678.6C1086.59 678.6 1086.95 678.691 1087.26 678.872C1087.57 679.048 1087.8 679.285 1087.96 679.584C1088.12 679.877 1088.2 680.195 1088.2 680.536ZM1087.84 680.672C1087.86 680.288 1087.79 679.963 1087.63 679.696C1087.48 679.429 1087.28 679.232 1087.02 679.104C1086.76 678.971 1086.47 678.904 1086.17 678.904C1085.86 678.904 1085.58 678.971 1085.32 679.104C1085.06 679.232 1084.85 679.429 1084.69 679.696C1084.53 679.963 1084.44 680.288 1084.43 680.672H1087.84ZM1090.74 683.064C1090.25 683.064 1089.85 682.957 1089.54 682.744C1089.24 682.531 1089.07 682.227 1089.03 681.832H1089.4C1089.43 682.115 1089.56 682.339 1089.78 682.504C1090.02 682.669 1090.34 682.752 1090.74 682.752C1091.07 682.752 1091.33 682.669 1091.52 682.504C1091.72 682.333 1091.82 682.125 1091.82 681.88C1091.82 681.709 1091.76 681.571 1091.66 681.464C1091.56 681.352 1091.43 681.267 1091.27 681.208C1091.12 681.149 1090.91 681.085 1090.64 681.016C1090.32 680.931 1090.06 680.848 1089.86 680.768C1089.67 680.683 1089.5 680.557 1089.36 680.392C1089.22 680.227 1089.15 680.005 1089.15 679.728C1089.15 679.525 1089.21 679.339 1089.34 679.168C1089.46 678.992 1089.63 678.853 1089.85 678.752C1090.07 678.651 1090.32 678.6 1090.59 678.6C1091.05 678.6 1091.41 678.715 1091.69 678.944C1091.97 679.168 1092.12 679.48 1092.14 679.88H1091.78C1091.77 679.592 1091.66 679.357 1091.45 679.176C1091.24 678.995 1090.95 678.904 1090.58 678.904C1090.28 678.904 1090.02 678.984 1089.82 679.144C1089.61 679.304 1089.51 679.499 1089.51 679.728C1089.51 679.931 1089.57 680.096 1089.68 680.224C1089.8 680.347 1089.94 680.443 1090.1 680.512C1090.28 680.576 1090.5 680.645 1090.78 680.72C1091.08 680.8 1091.32 680.88 1091.5 680.96C1091.69 681.035 1091.85 681.147 1091.98 681.296C1092.1 681.44 1092.17 681.635 1092.17 681.88C1092.17 682.104 1092.11 682.307 1091.98 682.488C1091.86 682.669 1091.69 682.811 1091.47 682.912C1091.25 683.013 1091.01 683.064 1090.74 683.064ZM1093.45 677.688C1093.36 677.688 1093.29 677.661 1093.23 677.608C1093.17 677.549 1093.15 677.472 1093.15 677.376C1093.15 677.285 1093.17 677.211 1093.23 677.152C1093.29 677.093 1093.36 677.064 1093.45 677.064C1093.53 677.064 1093.61 677.093 1093.67 677.152C1093.72 677.211 1093.75 677.285 1093.75 677.376C1093.75 677.472 1093.72 677.549 1093.67 677.608C1093.61 677.661 1093.53 677.688 1093.45 677.688ZM1093.63 678.656V683H1093.27V678.656H1093.63ZM1096.82 678.6C1097.28 678.6 1097.67 678.712 1097.99 678.936C1098.31 679.155 1098.53 679.437 1098.66 679.784V678.656H1099.02V683.136C1099.02 683.536 1098.93 683.885 1098.75 684.184C1098.58 684.488 1098.34 684.72 1098.04 684.88C1097.74 685.045 1097.41 685.128 1097.04 685.128C1096.5 685.128 1096.05 684.997 1095.69 684.736C1095.33 684.475 1095.1 684.123 1094.99 683.68H1095.35C1095.45 684.027 1095.65 684.301 1095.95 684.504C1096.24 684.712 1096.6 684.816 1097.04 684.816C1097.35 684.816 1097.62 684.747 1097.87 684.608C1098.11 684.475 1098.3 684.28 1098.44 684.024C1098.59 683.773 1098.66 683.477 1098.66 683.136V681.864C1098.53 682.211 1098.3 682.499 1097.98 682.728C1097.66 682.952 1097.27 683.064 1096.82 683.064C1096.41 683.064 1096.05 682.973 1095.73 682.792C1095.41 682.605 1095.17 682.344 1094.99 682.008C1094.81 681.667 1094.72 681.272 1094.72 680.824C1094.72 680.376 1094.81 679.984 1094.99 679.648C1095.17 679.312 1095.41 679.053 1095.73 678.872C1096.05 678.691 1096.41 678.6 1096.82 678.6ZM1098.66 680.824C1098.66 680.445 1098.58 680.112 1098.42 679.824C1098.26 679.531 1098.05 679.307 1097.78 679.152C1097.51 678.992 1097.2 678.912 1096.87 678.912C1096.51 678.912 1096.2 678.989 1095.94 679.144C1095.67 679.293 1095.46 679.512 1095.31 679.8C1095.16 680.088 1095.09 680.429 1095.09 680.824C1095.09 681.219 1095.16 681.56 1095.31 681.848C1095.46 682.136 1095.67 682.357 1095.94 682.512C1096.21 682.667 1096.52 682.744 1096.87 682.744C1097.2 682.744 1097.51 682.667 1097.78 682.512C1098.05 682.352 1098.27 682.128 1098.43 681.84C1098.58 681.547 1098.66 681.208 1098.66 680.824ZM1102.29 678.568C1102.81 678.568 1103.23 678.728 1103.55 679.048C1103.88 679.363 1104.04 679.832 1104.04 680.456V683H1103.69V680.48C1103.69 679.963 1103.56 679.568 1103.3 679.296C1103.03 679.019 1102.68 678.88 1102.23 678.88C1101.76 678.88 1101.39 679.029 1101.1 679.328C1100.83 679.627 1100.69 680.069 1100.69 680.656V683H1100.33V678.656H1100.69V679.576C1100.81 679.251 1101.01 679.003 1101.3 678.832C1101.58 678.656 1101.91 678.568 1102.29 678.568ZM1107.93 679.8C1108.06 679.448 1108.29 679.16 1108.61 678.936C1108.93 678.712 1109.32 678.6 1109.77 678.6C1110.18 678.6 1110.54 678.691 1110.85 678.872C1111.17 679.053 1111.42 679.312 1111.59 679.648C1111.78 679.984 1111.87 680.376 1111.87 680.824C1111.87 681.272 1111.78 681.667 1111.59 682.008C1111.42 682.344 1111.17 682.605 1110.85 682.792C1110.54 682.973 1110.18 683.064 1109.77 683.064C1109.32 683.064 1108.93 682.952 1108.6 682.728C1108.28 682.504 1108.06 682.216 1107.93 681.864V683H1107.57V677.08H1107.93V679.8ZM1111.5 680.824C1111.5 680.429 1111.42 680.088 1111.27 679.8C1111.12 679.512 1110.91 679.293 1110.64 679.144C1110.38 678.989 1110.07 678.912 1109.71 678.912C1109.38 678.912 1109.07 678.992 1108.8 679.152C1108.53 679.307 1108.32 679.531 1108.16 679.824C1108.01 680.112 1107.93 680.445 1107.93 680.824C1107.93 681.208 1108.01 681.547 1108.16 681.84C1108.32 682.128 1108.53 682.352 1108.8 682.512C1109.07 682.667 1109.38 682.744 1109.71 682.744C1110.07 682.744 1110.38 682.667 1110.64 682.512C1110.91 682.357 1111.12 682.136 1111.27 681.848C1111.42 681.56 1111.5 681.219 1111.5 680.824ZM1116.34 678.656L1113.82 685.04H1113.45L1114.26 683L1112.43 678.656H1112.82L1114.46 682.6L1115.98 678.656H1116.34ZM1117.09 683.024C1117 683.024 1116.93 682.995 1116.87 682.936C1116.81 682.877 1116.78 682.803 1116.78 682.712C1116.78 682.621 1116.81 682.547 1116.87 682.488C1116.93 682.429 1117 682.4 1117.09 682.4C1117.18 682.4 1117.25 682.429 1117.31 682.488C1117.37 682.547 1117.4 682.621 1117.4 682.712C1117.4 682.803 1117.37 682.877 1117.31 682.936C1117.25 682.995 1117.18 683.024 1117.09 683.024ZM1117.09 679.472C1117 679.472 1116.93 679.443 1116.87 679.384C1116.81 679.325 1116.78 679.251 1116.78 679.16C1116.78 679.069 1116.81 678.995 1116.87 678.936C1116.93 678.877 1117 678.848 1117.09 678.848C1117.18 678.848 1117.25 678.877 1117.31 678.936C1117.37 678.995 1117.4 679.069 1117.4 679.16C1117.4 679.251 1117.37 679.325 1117.31 679.384C1117.25 679.443 1117.18 679.472 1117.09 679.472Z" fill="#747474" fill-opacity="0.7"/>
<defs>
<linearGradient id="paint0_linear_23_116" x1="-2.29535e-05" y1="14" x2="1280" y2="730" gradientUnits="userSpaceOnUse">
<stop stop-color="#EF9FFF" stop-opacity="0.43"/>
<stop offset="1" stop-color="#8EB2FF" stop-opacity="0.5"/>
</linearGradient>
<linearGradient id="paint1_linear_23_116" x1="77" y1="30" x2="77" y2="690" gradientUnits="userSpaceOnUse">
<stop stop-color="#A45AFF"/>
<stop offset="1" stop-color="#C697FF"/>
</linearGradient>
</defs>
</svg>
